<svg height="496pt" viewBox="-48 0 496 496" width="496pt" xmlns="http://www.w3.org/2000/svg"><path d="m280 104-16-96h-128l-16 96zm0 0" fill="#bc8f6f"/><path d="m136 8-16 96h136l-16-96zm0 0" fill="#dbaf89"/><path d="m120 104-80 32h320l-80-32" fill="#cb9e78"/><path d="m40 136v32h320v-32" fill="#bc8f6f"/><path d="m296 216c17.671875 0 32-14.328125 32-32v-16h-32" fill="#dcb29c"/><path d="m104 216c-17.671875 0-32-14.328125-32-32v-16h32" fill="#dcb29c"/><path d="m312 184v-16h-16v43.558594c9.527344-5.542969 16-15.742188 16-27.558594zm0 0" fill="#f3c6b0"/><path d="m200 312c-53.015625 0-96-42.984375-96-96v-48h192v48c0 53.015625-42.984375 96-96 96zm0 0" fill="#dcb29c"/><path d="m188 311.167969c47.34375-5.910157 84-46.222657 84-95.167969v-48h-168v48c0 48.945312 36.65625 89.257812 84 95.167969zm0 0" fill="#f3c6b0"/><path d="m240 264h-80c0-17.671875 14.328125-32 32-32h16c17.671875 0 32 14.328125 32 32zm0 0" fill="#575c61"/><path d="m168 304-8 40h80l-8-40" fill="#dcb29c"/><path d="m168 304-8 40h64l-8-40zm0 0" fill="#f3c6b0"/><path d="m296 344h-192c-53.015625 0-96 42.984375-96 96v48h384v-48c0-53.015625-42.984375-96-96-96zm0 0" fill="#599072"/><path d="m264 344h-160c-53.015625 0-96 42.984375-96 96v48h352v-48c0-53.015625-42.984375-96-96-96zm0 0" fill="#70b48f"/><path d="m304 488v-160h-32v112h-144v-112h-32v160" fill="#eebc5a"/><path d="m272 328v112h-160v-112h-16v160h192v-160zm0 0" fill="#f8cf6a"/><path d="m280 112h-160c-2.351562 0-4.585938-1.03125-6.105469-2.832031s-2.167969-4.167969-1.78125-6.488281l16-96c.640625-3.847657 3.976563-6.679688 7.886719-6.679688h128c3.910156 0 7.246094 2.832031 7.886719 6.6875l16 96c.386719 2.320312-.261719 4.6875-1.78125 6.488281s-3.753907 2.824219-6.105469 2.824219zm-150.550781-16h141.109375l-13.335938-80h-114.445312zm0 0"/><path d="m128 64h144v16h-144zm0 0"/><path d="m360 144h-320c-3.832031 0-7.128906-2.71875-7.855469-6.488281-.730469-3.769531 1.328125-7.511719 4.878907-8.945313l80-32 5.945312 14.859375-41.433594 16.574219h236.921875l-41.433593-16.566406 5.945312-14.859375 80 32c3.558594 1.433593 5.605469 5.179687 4.878906 8.945312-.726562 3.769531-4.015625 6.480469-7.847656 6.480469zm0 0"/><path d="m360 176h-320c-4.414062 0-8-3.574219-8-8v-32h16v24h304v-24h16v32c0 4.425781-3.585938 8-8 8zm0 0"/><path d="m200 320c-57.34375 0-104-46.65625-104-104v-48c0-4.425781 3.585938-8 8-8h192c4.414062 0 8 3.574219 8 8v48c0 57.34375-46.65625 104-104 104zm-88-144v40c0 48.519531 39.480469 88 88 88s88-39.480469 88-88v-40zm0 0"/><path d="m240 272h-80c-4.414062 0-8-3.574219-8-8 0-22.054688 17.945312-40 40-40h16c22.054688 0 40 17.945312 40 40 0 4.425781-3.585938 8-8 8zm-70.632812-16h61.257812c-3.304688-9.3125-12.199219-16-22.632812-16h-16c-10.425782 0-19.320313 6.6875-22.625 16zm0 0"/><path d="m152 216c-8.824219 0-16-7.175781-16-16s7.175781-16 16-16 16 7.175781 16 16-7.175781 16-16 16zm0-16.007812"/><path d="m248 216c-8.824219 0-16-7.175781-16-16s7.175781-16 16-16 16 7.175781 16 16-7.175781 16-16 16zm0-16.007812"/><path d="m104 224c-22.054688 0-40-17.945312-40-40v-16h16v16c0 13.230469 10.769531 24 24 24zm0 0"/><path d="m296 224v-16c13.230469 0 24-10.769531 24-24v-16h16v16c0 22.054688-17.945312 40-40 40zm0 0"/><path d="m392 496h-384c-4.414062 0-8-3.574219-8-8v-48c0-53.710938 41.878906-99.230469 95.34375-103.648438l1.3125 15.953126c-45.222656 3.726562-80.65625 42.246093-80.65625 87.695312v40h368v-40c0-45.449219-35.433594-83.96875-80.65625-87.695312l1.3125-15.953126c53.464844 4.417969 95.34375 49.9375 95.34375 103.648438v48c0 4.425781-3.585938 8-8 8zm0 0"/><path d="m128 336h144v16h-144zm0 0"/><path d="m152.136719 342.441406 8.007812-40 15.6875 3.144532-8.007812 39.996093zm0 0"/><path d="m224.15625 305.574219 15.6875-3.136719 8 40-15.6875 3.136719zm0 0"/><path d="m312 488h-16v-152h-16v104c0 4.425781-3.585938 8-8 8h-144c-4.414062 0-8-3.574219-8-8v-104h-16v152h-16v-160c0-4.425781 3.585938-8 8-8h32c4.414062 0 8 3.574219 8 8v104h128v-104c0-4.425781 3.585938-8 8-8h32c4.414062 0 8 3.574219 8 8zm0 0"/></svg>